<?xml version="1.0" standalone="no"?>
<!DOCTYPE svg PUBLIC "-//W3C//DTD SVG 20010904//EN"
 "http://www.w3.org/TR/2001/REC-SVG-20010904/DTD/svg10.dtd">
<svg version="1.0" xmlns="http://www.w3.org/2000/svg"
 width="225.000000pt" height="225.000000pt" viewBox="0 0 225.000000 225.000000"
 preserveAspectRatio="xMidYMid meet">
<metadata>
Created by potrace 1.14, written by Peter Selinger 2001-2017
</metadata>
<g transform="translate(0.000000,225.000000) scale(0.100000,-0.100000)"
fill="#000000" stroke="none">
<path d="M1940 1940 l0 -150 -47 -1 c-27 0 -91 0 -143 0 l-96 0 1 -37 0 -36
142 0 142 1 3 -151 3 -151 35 0 35 0 1 135 c1 74 2 142 3 151 1 15 15 17 99
17 142 0 132 -3 132 37 l0 34 -110 0 c-61 -1 -114 2 -118 6 -4 3 -7 70 -7 148
l0 142 -37 2 -38 2 0 -149z"/>
<path d="M899 1976 c-2 -2 -35 -7 -74 -9 -249 -19 -479 -145 -642 -353 -72
-91 -152 -275 -169 -385 -12 -77 -11 -241 2 -314 27 -148 105 -315 197 -422
l21 -24 83 83 82 82 -33 45 c-227 311 -146 743 178 952 229 149 542 135 755
-32 13 -11 27 -19 31 -19 4 0 44 36 88 79 l79 80 -22 19 c-125 109 -323 193
-489 208 -39 3 -74 8 -77 10 -3 2 -8 2 -10 0z"/>
<path d="M1471 1596 l-83 -83 37 -48 c163 -214 173 -523 25 -750 -128 -196
-351 -311 -580 -300 -47 2 -96 7 -109 9 -78 17 -197 71 -261 120 l-45 35 -84
-86 c-46 -47 -79 -88 -74 -92 5 -3 33 -25 63 -47 151 -114 319 -173 509 -178
256 -7 475 79 657 259 174 173 266 393 265 640 0 192 -46 337 -157 505 -74
113 -67 113 -163 16z"/>
</g>
</svg>
